<svg version="1.1" xmlns="http://www.w3.org/2000/svg" viewBox="0 0 829.030824819165 752.2846727395881" width="1658.06164963833" height="1504.5693454791763" filter="invert(93%) hue-rotate(180deg)">
  <!-- svg-source:excalidraw -->
  
  <defs>
    <style class="style-fonts">
      @font-face {
        font-family: "Virgil";
        src: url("https://excalidraw.com/Virgil.woff2");
      }
      @font-face {
        font-family: "Cascadia";
        src: url("https://excalidraw.com/Cascadia.woff2");
      }
    </style>
    
  </defs>
  <g stroke-linecap="round" transform="translate(10 372.7526640218048) rotate(0 198.21685389625964 44.746140189879725)"><path d="M22.37 0 C100.62 0.6, 180.93 -0.55, 374.06 0 M22.37 0 C100.8 0.33, 178.3 0.44, 374.06 0 M374.06 0 C387.16 -1.37, 397.33 8.54, 396.43 22.37 M374.06 0 C387.58 -0.99, 395.15 8.61, 396.43 22.37 M396.43 22.37 C396.88 33.34, 394.36 45.35, 396.43 67.12 M396.43 22.37 C396.88 38.86, 395.41 54.75, 396.43 67.12 M396.43 67.12 C395.55 83.14, 390.58 89.22, 374.06 89.49 M396.43 67.12 C397.01 81.98, 390.02 89.31, 374.06 89.49 M374.06 89.49 C244.68 89.85, 115.57 89.14, 22.37 89.49 M374.06 89.49 C262.98 86.87, 151.24 87.46, 22.37 89.49 M22.37 89.49 C6.4 87.83, -0.97 82.25, 0 67.12 M22.37 89.49 C6.44 91.79, -1.05 80.65, 0 67.12 M0 67.12 C-1.43 57.84, 0.95 48.82, 0 22.37 M0 67.12 C-0.43 56.2, -1.07 44.03, 0 22.37 M0 22.37 C-1.25 7.17, 8.83 1.71, 22.37 0 M0 22.37 C-2.1 9.67, 8.15 -0.23, 22.37 0" stroke="#1e1e1e" stroke-width="4" fill="none"></path></g><g stroke-linecap="round" transform="translate(576.4382237999334 10) rotate(0 121.29630050961578 74.79049331696729)"><path d="M32 0 C99.07 1.25, 165.77 1.69, 210.59 0 M32 0 C92.89 1.61, 153.96 0.63, 210.59 0 M210.59 0 C233.22 0.96, 241.76 8.95, 242.59 32 M210.59 0 C230.14 -1.86, 244.32 8.49, 242.59 32 M242.59 32 C244.31 55.09, 241.67 79.67, 242.59 117.58 M242.59 32 C243.58 56.77, 243.39 79.98, 242.59 117.58 M242.59 117.58 C241.16 137.74, 231.02 150.12, 210.59 149.58 M242.59 117.58 C242.67 139.98, 230.06 151.68, 210.59 149.58 M210.59 149.58 C154.24 150.98, 100.82 151.81, 32 149.58 M210.59 149.58 C140 151.61, 68.52 150.38, 32 149.58 M32 149.58 C11.13 147.93, -1.37 140.65, 0 117.58 M32 149.58 C11.32 150.27, 2.07 139.58, 0 117.58 M0 117.58 C-1.29 82.83, -1.75 53.51, 0 32 M0 117.58 C-0.26 98.1, 0.32 79.4, 0 32 M0 32 C0.31 10.51, 8.79 0.9, 32 0 M0 32 C-0.8 10.77, 10.96 -0.38, 32 0" stroke="#1e1e1e" stroke-width="4" fill="none"></path></g><g stroke-linecap="round" transform="translate(573.2783315149873 214.1294090146739) rotate(0 120.00564435363958 37.36499487862261)"><path d="M2.49 7.46 C2.49 7.46, 2.49 7.46, 2.49 7.46 M2.49 7.46 C2.49 7.46, 2.49 7.46, 2.49 7.46 M0.26 16.12 C6.27 9.71, 9.88 4.86, 12.72 1.78 M0.26 16.12 C4.78 11.22, 8.98 5.76, 12.72 1.78 M0.65 21.77 C4.33 14.27, 13.01 10.75, 19.02 0.63 M0.65 21.77 C7.04 14.67, 11.57 8.85, 19.02 0.63 M0.39 28.16 C11.12 18.34, 20.72 6.28, 24.66 0.24 M0.39 28.16 C9.43 18.85, 17.02 7.8, 24.66 0.24 M0.13 34.56 C10.59 22.5, 20.22 12.05, 29.65 0.6 M0.13 34.56 C7.9 26.68, 15.3 15.96, 29.65 0.6 M0.52 40.2 C8.1 29.89, 18.04 20.44, 35.29 0.2 M0.52 40.2 C9.97 29.78, 19.62 17.4, 35.29 0.2 M0.26 46.6 C7.93 36.51, 17.55 24.64, 40.28 0.56 M0.26 46.6 C14.9 31.97, 28.39 15.65, 40.28 0.56 M0.66 52.25 C9.4 40.6, 20.16 29.78, 45.92 0.17 M0.66 52.25 C11.98 39.33, 23.49 25.39, 45.92 0.17 M0.39 58.64 C16.45 40.33, 33.69 23.76, 50.91 0.53 M0.39 58.64 C20.36 36.02, 39.15 13.26, 50.91 0.53 M1.44 63.53 C15.55 46.21, 31.99 26.41, 56.55 0.14 M1.44 63.53 C19.81 41.29, 40.41 18.92, 56.55 0.14 M3.15 67.67 C17.03 48.83, 35.46 33.63, 61.54 0.5 M3.15 67.67 C20.08 46.99, 39.11 25.9, 61.54 0.5 M6.17 70.29 C27.98 44.9, 49.6 19.67, 67.18 0.1 M6.17 70.29 C26.23 45.31, 47.23 22.66, 67.18 0.1 M9.19 72.91 C29.63 48.32, 49.16 25.44, 72.17 0.46 M9.19 72.91 C25.72 53.78, 41.59 32.75, 72.17 0.46 M13.52 74.03 C39.71 45.63, 64.6 17.86, 77.81 0.07 M13.52 74.03 C32.76 52.62, 51.21 31, 77.81 0.07 M17.85 75.14 C34.99 57.93, 48.39 41.26, 82.8 0.43 M17.85 75.14 C38.43 52.98, 57.38 29.8, 82.8 0.43 M22.84 75.5 C47.54 47.59, 71.62 19.37, 87.79 0.79 M22.84 75.5 C37.96 57.22, 53.47 40.42, 87.79 0.79 M28.48 75.11 C47.97 54.81, 64.47 36.32, 93.43 0.39 M28.48 75.11 C50.07 49.73, 73.22 23.32, 93.43 0.39 M33.47 75.47 C45.48 59.96, 60.39 44.33, 98.42 0.75 M33.47 75.47 C53.02 53.91, 70.3 32.89, 98.42 0.75 M39.11 75.07 C62.17 47.84, 87.13 21.18, 104.06 0.36 M39.11 75.07 C60.51 51.29, 80.63 28.74, 104.06 0.36 M44.1 75.43 C59.25 57.68, 73.89 44.18, 109.05 0.72 M44.1 75.43 C62.58 52.22, 83.25 29.66, 109.05 0.72 M49.74 75.04 C63.32 61.57, 74.87 43.85, 114.69 0.32 M49.74 75.04 C70.61 52.32, 90.66 29.27, 114.69 0.32 M54.73 75.4 C79.08 50.1, 98.95 21.34, 119.68 0.68 M54.73 75.4 C69.27 57.67, 83.56 41.66, 119.68 0.68 M60.37 75.01 C82.21 47.65, 103.95 22.41, 125.32 0.29 M60.37 75.01 C86.47 46.84, 112.25 16.64, 125.32 0.29 M65.36 75.37 C85.97 52.27, 103.11 32.79, 130.31 0.65 M65.36 75.37 C89.85 48.22, 113.92 21.31, 130.31 0.65 M71 74.97 C92.06 51.96, 110.36 33.99, 135.95 0.25 M71 74.97 C94.73 46.45, 118 19.86, 135.95 0.25 M75.99 75.33 C94.34 49.56, 115.88 27.41, 140.94 0.61 M75.99 75.33 C94.01 54.77, 111.87 33.26, 140.94 0.61 M81.63 74.94 C94.62 59.73, 110.37 44.95, 146.58 0.22 M81.63 74.94 C97.25 56.49, 113.35 37.9, 146.58 0.22 M86.62 75.3 C97.87 61.21, 115.02 43.7, 151.57 0.58 M86.62 75.3 C106.51 52.06, 125.34 31.15, 151.57 0.58 M92.26 74.9 C105.52 58.41, 120.36 42.01, 157.21 0.19 M92.26 74.9 C116.43 48.47, 140.35 20.73, 157.21 0.19 M97.25 75.26 C119.68 50.15, 140.23 25.49, 162.2 0.55 M97.25 75.26 C112.56 56.38, 129.61 38.49, 162.2 0.55 M102.89 74.87 C122.46 51.86, 146.58 25.91, 167.84 0.15 M102.89 74.87 C119.94 55.63, 139.01 35.03, 167.84 0.15 M107.88 75.23 C122.64 59.07, 137.99 41.98, 172.83 0.51 M107.88 75.23 C127.96 54.31, 145.88 32.14, 172.83 0.51 M113.52 74.83 C128.03 57.1, 145.41 39.69, 178.47 0.12 M113.52 74.83 C128.44 56.82, 144.39 37.99, 178.47 0.12 M118.51 75.19 C142.59 48.5, 166.22 19.91, 183.46 0.48 M118.51 75.19 C135.43 55.63, 152.19 37.53, 183.46 0.48 M124.15 74.8 C147.86 46.52, 176.01 15.55, 189.1 0.08 M124.15 74.8 C146.85 47.15, 169.45 21.26, 189.1 0.08 M129.14 75.16 C155.07 49.39, 177.59 22.14, 194.09 0.44 M129.14 75.16 C152.3 47.13, 174.52 22.17, 194.09 0.44 M134.13 75.52 C152.84 52.52, 173.1 31.68, 199.08 0.8 M134.13 75.52 C147.48 60.99, 162.68 44.26, 199.08 0.8 M139.77 75.12 C156.13 53.96, 172.79 33.3, 204.72 0.41 M139.77 75.12 C158.31 53.72, 174.14 34, 204.72 0.41 M144.76 75.48 C170.87 44.37, 197.11 14, 209.71 0.77 M144.76 75.48 C159.32 58.18, 175.82 39.39, 209.71 0.77 M150.4 75.09 C175.5 47.2, 199.13 18.81, 215.35 0.37 M150.4 75.09 C166.32 59.11, 181.79 41.86, 215.35 0.37 M155.39 75.45 C173.77 58.17, 190.7 37.23, 220.34 0.73 M155.39 75.45 C178.95 48.52, 202.31 21.54, 220.34 0.73 M161.03 75.05 C179.24 54.64, 193.68 35, 225.32 1.09 M161.03 75.05 C183.84 49.49, 205.52 23.78, 225.32 1.09 M166.02 75.41 C185.88 53.91, 201.59 31.08, 230.31 1.45 M166.02 75.41 C187.61 49.78, 209.74 25.99, 230.31 1.45 M171.66 75.02 C191.2 50.27, 214.78 26.33, 233.33 4.08 M171.66 75.02 C189.5 54.64, 207.82 32.29, 233.33 4.08 M176.65 75.38 C194.03 51.74, 214.39 33.4, 236.35 6.7 M176.65 75.38 C190.22 58.7, 205.04 44.22, 236.35 6.7 M182.29 74.99 C200.11 57.81, 216.3 35.99, 238.71 10.08 M182.29 74.99 C195.88 60.87, 207.6 45.27, 238.71 10.08 M187.28 75.35 C206.85 55.53, 222.35 32.24, 239.76 14.97 M187.28 75.35 C206.11 53.56, 224.47 32.36, 239.76 14.97 M192.92 74.95 C205.21 60.62, 215.9 48.62, 240.16 20.61 M192.92 74.95 C203.2 61.9, 213.4 50.59, 240.16 20.61 M197.91 75.31 C214.18 55.11, 229.23 36.91, 239.89 27.01 M197.91 75.31 C209.7 61.57, 220.89 47.91, 239.89 27.01 M203.55 74.92 C219.36 57.12, 230.42 42.87, 240.29 32.65 M203.55 74.92 C213.58 63.96, 224.74 50.84, 240.29 32.65 M208.54 75.28 C219.2 62.7, 229.88 49.79, 240.03 39.05 M208.54 75.28 C217.44 65.07, 224.82 56.52, 240.03 39.05 M214.18 74.88 C223.64 64.5, 233.18 51.08, 240.42 44.69 M214.18 74.88 C224.08 64.24, 232.92 54.78, 240.42 44.69 M219.17 75.24 C226.67 68.14, 234.12 59.65, 240.16 51.09 M219.17 75.24 C224.2 70.92, 228.57 65.34, 240.16 51.09 M225.47 74.09 C230.14 69.54, 236.88 63.82, 240.56 56.73 M225.47 74.09 C229.02 69.45, 231.82 65.42, 240.56 56.73 M231.76 72.94 C234.35 70.86, 236.36 67.86, 238.98 64.64 M231.76 72.94 C233.91 70.14, 236.54 67.7, 238.98 64.64" stroke="#a5d8ff" stroke-width="0.5" fill="none"></path><path d="M18.68 0 C85.75 0.57, 149.94 0.4, 221.33 0 M18.68 0 C61.2 -0.92, 103.85 -0.86, 221.33 0 M221.33 0 C235.48 -0.98, 238.76 5.44, 240.01 18.68 M221.33 0 C235.95 -1.03, 240.89 6.49, 240.01 18.68 M240.01 18.68 C239.28 32.36, 238.36 42.04, 240.01 56.05 M240.01 18.68 C239.14 26.19, 238.84 33.96, 240.01 56.05 M240.01 56.05 C240.23 69.95, 232.29 76.01, 221.33 74.73 M240.01 56.05 C240.37 70.7, 233.29 76.61, 221.33 74.73 M221.33 74.73 C156.28 72.03, 91.25 73.92, 18.68 74.73 M221.33 74.73 C151.64 75.65, 82.45 76.88, 18.68 74.73 M18.68 74.73 C6.27 74.31, 1.78 68.89, 0 56.05 M18.68 74.73 C6 74.86, 1.33 70.74, 0 56.05 M0 56.05 C-0.6 45.59, -1.03 36.98, 0 18.68 M0 56.05 C-0.58 49.35, -0.57 41.38, 0 18.68 M0 18.68 C-0.3 8.07, 4.86 0.23, 18.68 0 M0 18.68 C1.02 7.03, 7.91 1.78, 18.68 0" stroke="#1971c2" stroke-width="1" fill="none"></path></g><g transform="translate(646.3414789114795 235.44653537413296) rotate(0 48.314208984375 17.5)"><text x="0" y="0" font-family="Virgil, Segoe UI Emoji" font-size="28px" fill="#1e1e1e" text-anchor="start" style="white-space: pre;" direction="ltr" dominant-baseline="text-before-edge">Schema</text></g><g stroke-linecap="round" transform="translate(570.1645668180672 208.92058583148764) rotate(0 121.29630050961578 77.2890392644506)"><path d="M32 0 C82.52 2.89, 133.43 2.18, 210.59 0 M32 0 C79.81 -2.14, 128.22 -0.58, 210.59 0 M210.59 0 C231.03 0.77, 242.82 11.38, 242.59 32 M210.59 0 C231.46 2.29, 241.84 11.97, 242.59 32 M242.59 32 C240.25 50.65, 240.65 71.01, 242.59 122.58 M242.59 32 C242.62 50.44, 242.53 70.52, 242.59 122.58 M242.59 122.58 C244.51 143.48, 233.56 154.93, 210.59 154.58 M242.59 122.58 C241.14 141.71, 231.02 153.34, 210.59 154.58 M210.59 154.58 C172.88 157.06, 131.06 153.96, 32 154.58 M210.59 154.58 C150.56 155.5, 91.14 154.51, 32 154.58 M32 154.58 C10.78 155.74, 1.95 143.37, 0 122.58 M32 154.58 C10.3 152.42, -0.76 143.6, 0 122.58 M0 122.58 C-0.91 101.93, -1.86 79.7, 0 32 M0 122.58 C0.62 100.43, -0.19 80.1, 0 32 M0 32 C0.69 12.13, 12.21 0.32, 32 0 M0 32 C0.26 10.3, 11.84 -0.74, 32 0" stroke="#1e1e1e" stroke-width="4" fill="none"></path></g><g transform="translate(637.9373747303607 324.79063687501184) rotate(0 56.928123474121094 10)"><text x="0" y="0" font-family="Virgil, Segoe UI Emoji" font-size="16px" fill="#1e1e1e" text-anchor="start" style="white-space: pre;" direction="ltr" dominant-baseline="text-before-edge">defaultSchema</text></g><g stroke-linecap="round" transform="translate(578.7464416203857 13.590156324682539) rotate(0 120.00564435363958 37.36499487862261)"><path d="M2.49 7.46 C2.49 7.46, 2.49 7.46, 2.49 7.46 M2.49 7.46 C2.49 7.46, 2.49 7.46, 2.49 7.46 M0.91 15.37 C3.94 12.07, 6.75 10.02, 10.1 4.8 M0.91 15.37 C2.97 12.74, 5.99 9.56, 10.1 4.8 M1.31 21.01 C7.04 17.67, 10.99 13.49, 19.02 0.63 M1.31 21.01 C7.95 13.84, 16.36 5.88, 19.02 0.63 M1.05 27.41 C9.12 19.47, 19.18 6.61, 24.66 0.24 M1.05 27.41 C10.65 17.83, 19.05 6.87, 24.66 0.24 M1.44 33.05 C12.94 19.68, 20.21 8.26, 29.65 0.6 M1.44 33.05 C12.18 22.28, 21.33 10.44, 29.65 0.6 M1.18 39.45 C9.45 29.39, 19.01 19.86, 35.29 0.2 M1.18 39.45 C9.02 31.5, 14.77 23.41, 35.29 0.2 M0.92 45.85 C9.9 34.39, 21.33 23.29, 40.28 0.56 M0.92 45.85 C10.05 33.7, 20.1 24.1, 40.28 0.56 M1.31 51.49 C15.45 38.24, 24.27 24.41, 45.92 0.17 M1.31 51.49 C15.39 35.17, 29.09 20.02, 45.92 0.17 M1.05 57.89 C19.06 38.07, 33.65 17.15, 50.91 0.53 M1.05 57.89 C16.13 39.31, 34.28 20, 50.91 0.53 M2.76 62.02 C22.81 40.09, 41.23 18.81, 56.55 0.14 M2.76 62.02 C15.03 49.49, 27.06 34.84, 56.55 0.14 M3.15 67.67 C19.92 50.98, 32.56 31.69, 61.54 0.5 M3.15 67.67 C20.67 46.86, 37.75 28.84, 61.54 0.5 M6.17 70.29 C18.49 57.04, 29.98 40.94, 67.18 0.1 M6.17 70.29 C25.09 48.21, 45.94 25.4, 67.18 0.1 M9.19 72.91 C33.45 43.21, 57.19 18.41, 72.17 0.46 M9.19 72.91 C31.38 49.2, 52.61 24.32, 72.17 0.46 M12.21 75.54 C38.77 46.32, 64.18 16.77, 77.81 0.07 M12.21 75.54 C34.96 50.92, 57.28 23.89, 77.81 0.07 M17.19 75.9 C34.44 55.44, 49.78 37.62, 82.8 0.43 M17.19 75.9 C36.02 54.44, 52.76 32.73, 82.8 0.43 M21.53 77.01 C37.45 56.44, 56.67 32.31, 87.79 0.79 M21.53 77.01 C40.12 55.6, 59.42 32.34, 87.79 0.79 M26.51 77.37 C53.1 46.38, 78.19 15.89, 93.43 0.39 M26.51 77.37 C40.01 62.89, 54.71 46.89, 93.43 0.39 M32.16 76.98 C46.62 58.84, 60.23 41.43, 98.42 0.75 M32.16 76.98 C51.44 54.48, 73.65 29.51, 98.42 0.75 M37.14 77.34 C54.17 55.75, 73.28 39, 104.06 0.36 M37.14 77.34 C53.52 59.49, 69.42 40.32, 104.06 0.36 M42.79 76.94 C60.97 54.92, 79.1 34.43, 109.05 0.72 M42.79 76.94 C56.63 59.61, 71.2 44.45, 109.05 0.72 M47.77 77.3 C69.2 52.64, 91.57 25, 114.69 0.32 M47.77 77.3 C62.5 58.7, 76.7 41.97, 114.69 0.32 M53.42 76.91 C65.16 62.53, 82.79 45.11, 119.68 0.68 M53.42 76.91 C77.87 49.11, 100.96 21.51, 119.68 0.68 M58.4 77.27 C83.53 46.11, 112.37 17.86, 125.32 0.29 M58.4 77.27 C82.95 47.24, 109.84 17.52, 125.32 0.29 M64.05 76.87 C80.95 54.44, 103.89 31.57, 130.31 0.65 M64.05 76.87 C90.35 47.88, 116.17 17.89, 130.31 0.65 M69.03 77.23 C84.28 57.81, 100.92 37.79, 135.95 0.25 M69.03 77.23 C87.6 56.76, 103 38.39, 135.95 0.25 M74.68 76.84 C97.76 52.31, 120.95 22.82, 140.94 0.61 M74.68 76.84 C93.38 56.76, 112.4 34.95, 140.94 0.61 M79.66 77.2 C96.27 59.45, 109.76 44.29, 146.58 0.22 M79.66 77.2 C105.82 46.72, 132.98 15.75, 146.58 0.22 M85.31 76.81 C105.52 53.93, 124.48 35.85, 151.57 0.58 M85.31 76.81 C102.5 57.08, 121.04 38.4, 151.57 0.58 M90.29 77.17 C108.27 58.13, 124.76 34.69, 157.21 0.19 M90.29 77.17 C109.04 56.32, 126.02 36.06, 157.21 0.19 M95.94 76.77 C119.37 50.32, 141.54 25.88, 162.2 0.55 M95.94 76.77 C119.14 51.19, 141.81 24.96, 162.2 0.55 M100.92 77.13 C117.68 58.54, 129.88 43.29, 167.84 0.15 M100.92 77.13 C121.85 53.91, 141.47 28.84, 167.84 0.15 M105.91 77.49 C122.72 56.21, 139.34 37.29, 172.83 0.51 M105.91 77.49 C131.09 46.94, 158.13 16.82, 172.83 0.51 M111.55 77.1 C137.84 45.81, 159.95 17.73, 178.47 0.12 M111.55 77.1 C133.68 52.11, 155.67 26.7, 178.47 0.12 M116.54 77.46 C140.53 50.62, 162.74 25.03, 183.46 0.48 M116.54 77.46 C129.81 62.64, 143.9 46.43, 183.46 0.48 M122.18 77.06 C142.56 52.88, 167.56 27, 189.1 0.08 M122.18 77.06 C141.52 55.61, 160.98 31.78, 189.1 0.08 M127.17 77.42 C148.27 50.93, 171.16 23.61, 194.09 0.44 M127.17 77.42 C145.25 56.95, 162.79 36.58, 194.09 0.44 M132.81 77.03 C152.34 57.94, 168.12 35.04, 199.08 0.8 M132.81 77.03 C151.5 54.66, 170.38 33.24, 199.08 0.8 M137.8 77.39 C150.55 62.37, 167.17 47.79, 204.72 0.41 M137.8 77.39 C164.18 47.29, 190.55 16.03, 204.72 0.41 M143.44 76.99 C166.64 50.88, 185.97 24.32, 209.71 0.77 M143.44 76.99 C156.27 62.33, 169.66 46.62, 209.71 0.77 M148.43 77.35 C170.7 54.11, 190.24 29.28, 215.35 0.37 M148.43 77.35 C167.12 56.25, 187.69 33.13, 215.35 0.37 M154.07 76.96 C173.74 57.37, 191.24 35.96, 220.34 0.73 M154.07 76.96 C171.93 55.22, 188.37 35.67, 220.34 0.73 M159.06 77.32 C174.27 59.86, 188.94 42.01, 224.01 2.6 M159.06 77.32 C184.32 47.5, 210.89 17.4, 224.01 2.6 M164.7 76.92 C187.58 52.24, 209.03 25.8, 230.31 1.45 M164.7 76.92 C181.83 57.13, 199.87 36.72, 230.31 1.45 M169.69 77.28 C184.74 60.49, 198.55 47.33, 233.33 4.08 M169.69 77.28 C183.15 61.29, 195.81 46.16, 233.33 4.08 M175.33 76.89 C188.51 63.59, 202.97 44.7, 236.35 6.7 M175.33 76.89 C195.7 52.07, 217.66 27.6, 236.35 6.7 M180.32 77.25 C195.46 59.59, 209.77 46.43, 239.37 9.33 M180.32 77.25 C191.94 62.07, 204.16 48.72, 239.37 9.33 M185.96 76.86 C202.15 56.63, 219.99 39.53, 239.76 14.97 M185.96 76.86 C197.42 63.21, 209.44 50.68, 239.76 14.97 M190.95 77.22 C209.65 55.77, 229.14 33.07, 240.16 20.61 M190.95 77.22 C206.16 61.68, 219.25 44.79, 240.16 20.61 M196.59 76.82 C212.8 57.74, 229.83 36.01, 239.89 27.01 M196.59 76.82 C210.08 61.83, 224.8 45.68, 239.89 27.01 M201.58 77.18 C210.19 64.06, 223.2 51.9, 240.29 32.65 M201.58 77.18 C215.47 61.63, 229.39 46.84, 240.29 32.65 M207.22 76.79 C216.73 68.32, 222.1 58.23, 240.03 39.05 M207.22 76.79 C216.57 66.49, 227.42 53.69, 240.03 39.05 M212.21 77.15 C217.6 70.53, 224.58 65.18, 240.42 44.69 M212.21 77.15 C221.41 67.91, 229.2 56.54, 240.42 44.69 M217.85 76.75 C227.32 66.81, 235.38 55.21, 240.16 51.09 M217.85 76.75 C225.23 68.92, 232.03 61.57, 240.16 51.09 M223.5 76.36 C228 71.21, 231.33 65.8, 240.56 56.73 M223.5 76.36 C227.78 70.92, 233.24 65.48, 240.56 56.73 M229.8 75.21 C233.67 72.68, 234.97 68.45, 238.98 64.64 M229.8 75.21 C232.65 72.83, 234.93 68.84, 238.98 64.64" stroke="#a5d8ff" stroke-width="0.5" fill="none"></path><path d="M18.68 0 C94.29 -2.13, 172.88 -2.15, 221.33 0 M18.68 0 C93.33 -1.69, 166.43 -1.54, 221.33 0 M221.33 0 C232.81 0.65, 238.4 5.88, 240.01 18.68 M221.33 0 C234.84 1.84, 240.51 6.3, 240.01 18.68 M240.01 18.68 C240.6 31.48, 241.83 48.44, 240.01 56.05 M240.01 18.68 C240.36 27.26, 240.53 35.06, 240.01 56.05 M240.01 56.05 C238.17 70.13, 235.12 75.44, 221.33 74.73 M240.01 56.05 C238.63 69.98, 234.83 75.72, 221.33 74.73 M221.33 74.73 C166.61 76.68, 110.65 75.46, 18.68 74.73 M221.33 74.73 C178.72 74.96, 138.05 75.13, 18.68 74.73 M18.68 74.73 C4.61 74.43, 0.47 69.45, 0 56.05 M18.68 74.73 C7.27 76.41, 0.89 67.91, 0 56.05 M0 56.05 C-0.46 44.61, 0.02 35.02, 0 18.68 M0 56.05 C-0.5 46.11, -0.45 34.23, 0 18.68 M0 18.68 C1.98 7.42, 4.87 0.85, 18.68 0 M0 18.68 C0.8 5.89, 6.41 -0.5, 18.68 0" stroke="#1971c2" stroke-width="1" fill="none"></path></g><g transform="translate(645.3705191470735 33.76447436198396) rotate(0 51.744224548339844 17.5)"><text x="0" y="0" font-family="Virgil, Segoe UI Emoji" font-size="28px" fill="#1e1e1e" text-anchor="start" style="white-space: pre;" direction="ltr" dominant-baseline="text-before-edge">Element</text></g><g transform="translate(592.6408854071105 107.94354591089905) rotate(0 102.24019622802734 10)"><text x="0" y="0" font-family="Virgil, Segoe UI Emoji" font-size="16px" fill="#1e1e1e" text-anchor="start" style="white-space: pre;" direction="ltr" dominant-baseline="text-before-edge">document.documentElement</text></g><g transform="translate(630.2258797101294 135.36995620652533) rotate(0 53.176116943359375 10)"><text x="0" y="0" font-family="Virgil, Segoe UI Emoji" font-size="16px" fill="#1e1e1e" text-anchor="start" style="white-space: pre;" direction="ltr" dominant-baseline="text-before-edge">&lt;Html&gt;&lt;/html&gt;</text></g><g stroke-linecap="round" transform="translate(558.141811899638 391.8044526449671) rotate(0 120.00564435363958 37.36499487862261)"><path d="M2.49 7.46 C2.49 7.46, 2.49 7.46, 2.49 7.46 M2.49 7.46 C2.49 7.46, 2.49 7.46, 2.49 7.46 M0.91 15.37 C4.79 13.43, 5.85 9.3, 10.1 4.8 M0.91 15.37 C4.26 12.09, 6.62 7.81, 10.1 4.8 M1.31 21.01 C7.06 14.88, 13.31 5, 19.02 0.63 M1.31 21.01 C6.56 13.24, 13.97 7, 19.02 0.63 M1.05 27.41 C8.2 18.66, 17.56 7.27, 24.66 0.24 M1.05 27.41 C9.65 17.82, 16.11 8.12, 24.66 0.24 M1.44 33.05 C9.94 26.5, 15.13 17.16, 29.65 0.6 M1.44 33.05 C11.92 21.16, 23.27 8.94, 29.65 0.6 M1.18 39.45 C15.42 23.6, 29.53 9.78, 35.29 0.2 M1.18 39.45 C13.81 26.23, 24.42 12.88, 35.29 0.2 M0.92 45.85 C13.03 31.37, 24.52 18.97, 40.28 0.56 M0.92 45.85 C12.63 33.15, 22.98 22.31, 40.28 0.56 M1.31 51.49 C12.28 40.43, 22.83 26.94, 45.92 0.17 M1.31 51.49 C12.08 40.51, 21.27 28.33, 45.92 0.17 M1.05 57.89 C13.99 45.88, 24.3 28.72, 50.91 0.53 M1.05 57.89 C13.49 43.01, 26.47 26.68, 50.91 0.53 M2.76 62.02 C13.11 47.05, 26.02 34.06, 56.55 0.14 M2.76 62.02 C17.83 45.06, 33.67 26.9, 56.55 0.14 M3.15 67.67 C24.37 45.94, 42.29 21.16, 61.54 0.5 M3.15 67.67 C22.69 44.99, 43.76 19.48, 61.54 0.5 M6.17 70.29 C30.26 44.32, 51.01 20.67, 67.18 0.1 M6.17 70.29 C23.43 51.61, 39.39 31.62, 67.18 0.1 M9.19 72.91 C29.26 46.75, 52.25 22.29, 72.17 0.46 M9.19 72.91 C22.19 58.69, 33.48 44.04, 72.17 0.46 M12.21 75.54 C25.64 60.42, 40.43 43.84, 77.81 0.07 M12.21 75.54 C27.2 57.78, 41.96 40.3, 77.81 0.07 M17.19 75.9 C34.97 53.6, 54.1 32.82, 82.8 0.43 M17.19 75.9 C33.65 56, 50.15 36.75, 82.8 0.43 M21.53 77.01 C38.62 59.17, 53.36 44.56, 87.79 0.79 M21.53 77.01 C39.61 54.86, 59.1 33.12, 87.79 0.79 M26.51 77.37 C51.44 47.21, 79.25 18.79, 93.43 0.39 M26.51 77.37 C53.92 45.99, 79.38 16.05, 93.43 0.39 M32.16 76.98 C55.51 48.63, 77.03 23.64, 98.42 0.75 M32.16 76.98 C59 46.48, 83.17 17.45, 98.42 0.75 M37.14 77.34 C51.86 59.09, 69.36 40.97, 104.06 0.36 M37.14 77.34 C58.89 53.55, 79.95 28.68, 104.06 0.36 M42.79 76.94 C59.01 56.51, 78.62 36.61, 109.05 0.72 M42.79 76.94 C68.83 47.03, 94.84 17.18, 109.05 0.72 M47.77 77.3 C73.56 50.97, 98.74 19.68, 114.69 0.32 M47.77 77.3 C69.37 52.61, 92.24 26.97, 114.69 0.32 M53.42 76.91 C78.4 47.51, 100.36 20.98, 119.68 0.68 M53.42 76.91 C78.35 47.14, 104.28 16.56, 119.68 0.68 M58.4 77.27 C76.49 56.69, 91.88 38.82, 125.32 0.29 M58.4 77.27 C81.92 51.92, 104.59 24.22, 125.32 0.29 M64.05 76.87 C84.45 54.38, 104.4 30.24, 130.31 0.65 M64.05 76.87 C89.17 48.75, 114.06 19.96, 130.31 0.65 M69.03 77.23 C93.52 49.59, 118.65 19.24, 135.95 0.25 M69.03 77.23 C91.16 51.87, 113.37 24.76, 135.95 0.25 M74.68 76.84 C94.18 58.06, 110.49 34.22, 140.94 0.61 M74.68 76.84 C98.18 49.92, 122.66 21.08, 140.94 0.61 M79.66 77.2 C100 55.49, 120.66 29.89, 146.58 0.22 M79.66 77.2 C96.31 57.99, 112.86 39.05, 146.58 0.22 M85.31 76.81 C109.84 44.5, 137.81 17.95, 151.57 0.58 M85.31 76.81 C104.73 55.38, 123.03 35.08, 151.57 0.58 M90.29 77.17 C106.97 59.82, 120.92 39.6, 157.21 0.19 M90.29 77.17 C107.36 56.12, 125.53 35.78, 157.21 0.19 M95.94 76.77 C110.63 58.72, 127.56 37.86, 162.2 0.55 M95.94 76.77 C116.13 54.07, 135.97 31.29, 162.2 0.55 M100.92 77.13 C119.91 56.24, 139.7 35.51, 167.84 0.15 M100.92 77.13 C126.66 47.22, 152.08 19.24, 167.84 0.15 M105.91 77.49 C131.41 46.99, 157.33 17.35, 172.83 0.51 M105.91 77.49 C122.4 57.4, 139.93 37.35, 172.83 0.51 M111.55 77.1 C132.05 50.3, 157.14 26.42, 178.47 0.12 M111.55 77.1 C125.62 60.14, 139.52 43.65, 178.47 0.12 M116.54 77.46 C140.6 46.43, 168.07 18.31, 183.46 0.48 M116.54 77.46 C135.09 57.29, 152.26 35.96, 183.46 0.48 M122.18 77.06 C148.42 44.35, 173.41 16.67, 189.1 0.08 M122.18 77.06 C147.84 47.12, 173.28 16.73, 189.1 0.08 M127.17 77.42 C140.65 63.53, 156.11 47.04, 194.09 0.44 M127.17 77.42 C147.6 54.01, 168.73 28.36, 194.09 0.44 M132.81 77.03 C154.51 54.22, 173.08 30.08, 199.08 0.8 M132.81 77.03 C155.76 48.79, 181.06 22.55, 199.08 0.8 M137.8 77.39 C156.51 56.06, 175.76 37.03, 204.72 0.41 M137.8 77.39 C152.9 60.09, 167.71 42.84, 204.72 0.41 M143.44 76.99 C170.6 47.77, 195.04 13.78, 209.71 0.77 M143.44 76.99 C168.67 47.16, 194.99 17.16, 209.71 0.77 M148.43 77.35 C171.67 51.68, 193.88 24.12, 215.35 0.37 M148.43 77.35 C170.25 52.64, 194.02 26.99, 215.35 0.37 M154.07 76.96 C168 60.63, 180.89 47.01, 220.34 0.73 M154.07 76.96 C178.96 49.45, 202.83 22.77, 220.34 0.73 M159.06 77.32 C174.78 57.26, 194.87 38.53, 224.01 2.6 M159.06 77.32 C183.43 48.57, 208.69 18.42, 224.01 2.6 M164.7 76.92 C186.77 51.73, 211.43 22.83, 230.31 1.45 M164.7 76.92 C189.37 48.75, 213.3 21.11, 230.31 1.45 M169.69 77.28 C183.55 60.39, 194.49 44.97, 233.33 4.08 M169.69 77.28 C187.6 56.36, 203.67 37.25, 233.33 4.08 M175.33 76.89 C193.62 54.26, 215.29 31.33, 236.35 6.7 M175.33 76.89 C196.51 53.34, 216.89 28.76, 236.35 6.7 M180.32 77.25 C192.24 62.29, 206.45 46.26, 239.37 9.33 M180.32 77.25 C196.85 58.6, 212.16 41.73, 239.37 9.33 M185.96 76.86 C198.54 61.97, 214.49 45.73, 239.76 14.97 M185.96 76.86 C208.16 52.52, 228.58 28.1, 239.76 14.97 M190.95 77.22 C207.22 59.61, 222.22 43.4, 240.16 20.61 M190.95 77.22 C209.3 55.4, 227.43 34.48, 240.16 20.61 M196.59 76.82 C210.81 60.43, 227.79 42.1, 239.89 27.01 M196.59 76.82 C209.16 61.33, 222.84 45.76, 239.89 27.01 M201.58 77.18 C215.29 63.74, 225.51 49.15, 240.29 32.65 M201.58 77.18 C209.02 68.13, 217.07 59.24, 240.29 32.65 M207.22 76.79 C216.37 69.77, 221.42 59.66, 240.03 39.05 M207.22 76.79 C213.21 68.15, 221 60.3, 240.03 39.05 M212.21 77.15 C221.74 67.6, 229.08 57.81, 240.42 44.69 M212.21 77.15 C221.53 67.53, 230.3 56.92, 240.42 44.69 M217.85 76.75 C224.84 69.88, 228.31 66.38, 240.16 51.09 M217.85 76.75 C224.59 67.99, 232.86 59.88, 240.16 51.09 M223.5 76.36 C228.55 69.62, 235.31 64.23, 240.56 56.73 M223.5 76.36 C229.17 70.14, 232.2 65.16, 240.56 56.73 M229.8 75.21 C233.68 71.06, 234.83 69.51, 238.98 64.64 M229.8 75.21 C232.41 73.08, 233.9 70.07, 238.98 64.64" stroke="#a5d8ff" stroke-width="0.5" fill="none"></path><path d="M18.68 0 C97.12 0.5, 178.19 2.32, 221.33 0 M18.68 0 C72.81 0.03, 126.09 0.89, 221.33 0 M221.33 0 C232.9 -1.27, 238.61 7.67, 240.01 18.68 M221.33 0 C232.69 1.36, 239.71 6.88, 240.01 18.68 M240.01 18.68 C238.66 29.37, 241.75 44.46, 240.01 56.05 M240.01 18.68 C240.69 26.92, 239.08 35.74, 240.01 56.05 M240.01 56.05 C241.31 69.29, 234.89 74.4, 221.33 74.73 M240.01 56.05 C240.11 66.35, 234.77 76.41, 221.33 74.73 M221.33 74.73 C168.26 75.49, 113.1 72.95, 18.68 74.73 M221.33 74.73 C154.81 72.49, 89.94 73.95, 18.68 74.73 M18.68 74.73 C5.08 74.03, 0.2 68.6, 0 56.05 M18.68 74.73 C8.48 73.96, 1.05 67.53, 0 56.05 M0 56.05 C-0.88 40.24, 1.88 27.6, 0 18.68 M0 56.05 C0.55 44.4, -0.31 33.36, 0 18.68 M0 18.68 C0.23 5.49, 4.66 1.4, 18.68 0 M0 18.68 C-2.01 5.32, 5.6 -0.14, 18.68 0" stroke="#1971c2" stroke-width="1" fill="none"></path></g><g transform="translate(617.3828261795134 411.09976071375104) rotate(0 73.36030578613281 17.5)"><text x="0" y="0" font-family="Virgil, Segoe UI Emoji" font-size="28px" fill="#1e1e1e" text-anchor="start" style="white-space: pre;" direction="ltr" dominant-baseline="text-before-edge">Dispatcher</text></g><g stroke-linecap="round" transform="translate(557.4674071488234 387.40874944381767) rotate(0 121.29630050961578 77.2890392644506)"><path d="M32 0 C81.6 -2.49, 132.55 -1.1, 210.59 0 M32 0 C85.83 -2.42, 139.84 -1.06, 210.59 0 M210.59 0 C230.98 1.18, 242.33 11.23, 242.59 32 M210.59 0 C232.78 -0.6, 242.93 9.22, 242.59 32 M242.59 32 C241.94 50.83, 242.03 70.27, 242.59 122.58 M242.59 32 C242.34 57.68, 242.25 82.41, 242.59 122.58 M242.59 122.58 C242.68 142.04, 232.78 156.04, 210.59 154.58 M242.59 122.58 C241.79 142.5, 231.79 155.37, 210.59 154.58 M210.59 154.58 C148.91 154.38, 84.59 151.82, 32 154.58 M210.59 154.58 C172.22 155.56, 135.1 155.96, 32 154.58 M32 154.58 C12.63 153.91, 0.91 143.06, 0 122.58 M32 154.58 C12.45 152.39, 1.61 142.49, 0 122.58 M0 122.58 C-0.5 101.32, -0.99 84.04, 0 32 M0 122.58 C0.7 95.8, -0.2 70.47, 0 32 M0 32 C-1.75 9.88, 10.12 -0.12, 32 0 M0 32 C2.26 12.45, 12 -1.15, 32 0" stroke="#1e1e1e" stroke-width="4" fill="none"></path></g><g transform="translate(630.8996242678031 503.9703847163664) rotate(0 56.87211608886719 10)"><text x="0" y="0" font-family="Virgil, Segoe UI Emoji" font-size="16px" fill="#1e1e1e" text-anchor="start" style="white-space: pre;" direction="ltr" dominant-baseline="text-before-edge">eventListeners</text></g><g transform="translate(631.9332570783909 473.6639965309969) rotate(0 53.64811706542969 10)"><text x="0" y="0" font-family="Virgil, Segoe UI Emoji" font-size="16px" fill="#1e1e1e" text-anchor="start" style="white-space: pre;" direction="ltr" dominant-baseline="text-before-edge">eventTargets</text></g><g stroke-linecap="round" transform="translate(552.3344865729741 571.3257221680692) rotate(0 120.00564435363958 37.36499487862261)"><path d="M2.49 7.46 C2.49 7.46, 2.49 7.46, 2.49 7.46 M2.49 7.46 C2.49 7.46, 2.49 7.46, 2.49 7.46 M0.91 15.37 C5.66 11.53, 6.79 5.89, 10.1 4.8 M0.91 15.37 C3.73 11.91, 7.72 8.21, 10.1 4.8 M1.31 21.01 C6.54 16.96, 12.11 8.99, 19.02 0.63 M1.31 21.01 C5.28 15.3, 9.23 11.08, 19.02 0.63 M1.05 27.41 C6.3 21.56, 14.42 11.06, 24.66 0.24 M1.05 27.41 C7.05 21.54, 12.65 12.66, 24.66 0.24 M1.44 33.05 C8.36 25.25, 17.06 14.64, 29.65 0.6 M1.44 33.05 C10.2 21.83, 20.97 11.69, 29.65 0.6 M1.18 39.45 C8.66 29.55, 14.58 22.27, 35.29 0.2 M1.18 39.45 C7.68 31.27, 15.76 23.27, 35.29 0.2 M0.92 45.85 C11.07 35.54, 21.38 22.11, 40.28 0.56 M0.92 45.85 C10.64 34.73, 20.06 24.93, 40.28 0.56 M1.31 51.49 C14.35 34.89, 29.28 18.26, 45.92 0.17 M1.31 51.49 C14.44 35.58, 28.5 21.76, 45.92 0.17 M1.05 57.89 C13.18 45.42, 27.11 28.08, 50.91 0.53 M1.05 57.89 C19.77 38.27, 37.08 16.04, 50.91 0.53 M2.76 62.02 C13.99 47.42, 29.5 33.63, 56.55 0.14 M2.76 62.02 C14.5 48.58, 27.55 33.16, 56.55 0.14 M3.15 67.67 C24.07 42.38, 47 18.49, 61.54 0.5 M3.15 67.67 C15.66 51.06, 29.75 36.09, 61.54 0.5 M6.17 70.29 C31.37 42.13, 51.58 18.34, 67.18 0.1 M6.17 70.29 C19.95 53.57, 34 39.03, 67.18 0.1 M9.19 72.91 C28.56 52.5, 46.08 33.09, 72.17 0.46 M9.19 72.91 C29 50.56, 46.84 29.66, 72.17 0.46 M12.21 75.54 C33.28 48.87, 54.85 28.25, 77.81 0.07 M12.21 75.54 C32.1 52.84, 52.13 31.03, 77.81 0.07 M17.19 75.9 C36.64 56.53, 53.27 33.48, 82.8 0.43 M17.19 75.9 C34.15 56.53, 50.5 37.76, 82.8 0.43 M21.53 77.01 C36.52 57.97, 50.14 45.11, 87.79 0.79 M21.53 77.01 C46.38 48.51, 71.47 18.5, 87.79 0.79 M26.51 77.37 C45.68 54.99, 66.41 31.4, 93.43 0.39 M26.51 77.37 C50.84 48.09, 76.26 21.72, 93.43 0.39 M32.16 76.98 C55.38 50.3, 80.35 20.82, 98.42 0.75 M32.16 76.98 C58.63 46.21, 83.71 16.41, 98.42 0.75 M37.14 77.34 C55.74 58.27, 72.44 37.49, 104.06 0.36 M37.14 77.34 C63.13 48.86, 86.88 19.82, 104.06 0.36 M42.79 76.94 C62.91 55.51, 81.09 34.07, 109.05 0.72 M42.79 76.94 C69.14 47.42, 96.25 17.35, 109.05 0.72 M47.77 77.3 C70.03 52.8, 88.05 30.13, 114.69 0.32 M47.77 77.3 C72.28 49.43, 94.87 23.12, 114.69 0.32 M53.42 76.91 C76.51 49.9, 103.92 21.59, 119.68 0.68 M53.42 76.91 C66.82 59.06, 82.63 43.68, 119.68 0.68 M58.4 77.27 C74.45 58.81, 88.96 40.54, 125.32 0.29 M58.4 77.27 C73.65 58.39, 91.52 39.51, 125.32 0.29 M64.05 76.87 C82.97 58.09, 100.86 37.03, 130.31 0.65 M64.05 76.87 C80.36 58.97, 96.36 41.51, 130.31 0.65 M69.03 77.23 C82.88 58.82, 98.46 42.94, 135.95 0.25 M69.03 77.23 C94.07 49.34, 116.03 21.83, 135.95 0.25 M74.68 76.84 C100.57 49.2, 122.01 20.92, 140.94 0.61 M74.68 76.84 C88.4 61.53, 102.14 46.11, 140.94 0.61 M79.66 77.2 C95.41 56.13, 116.15 35.58, 146.58 0.22 M79.66 77.2 C94.73 58.52, 110.79 40.19, 146.58 0.22 M85.31 76.81 C100.41 59.27, 113.38 45.36, 151.57 0.58 M85.31 76.81 C98.58 60.69, 112.58 46.36, 151.57 0.58 M90.29 77.17 C114.27 47.13, 140.56 17.31, 157.21 0.19 M90.29 77.17 C105.04 60.36, 117.62 46.08, 157.21 0.19 M95.94 76.77 C118.36 52.32, 137.52 29.51, 162.2 0.55 M95.94 76.77 C117.86 52.47, 138.61 30.1, 162.2 0.55 M100.92 77.13 C114.49 60.39, 131.78 41.81, 167.84 0.15 M100.92 77.13 C116.61 59.83, 130.16 43.34, 167.84 0.15 M105.91 77.49 C131.26 47.76, 157.32 20.33, 172.83 0.51 M105.91 77.49 C126.87 54.04, 148.2 27.9, 172.83 0.51 M111.55 77.1 C128.32 55.99, 145.45 36.17, 178.47 0.12 M111.55 77.1 C127.75 58.33, 142.42 41, 178.47 0.12 M116.54 77.46 C132.24 60.62, 145.95 45.42, 183.46 0.48 M116.54 77.46 C130.18 61.97, 144.83 44.13, 183.46 0.48 M122.18 77.06 C143.46 49.58, 167.98 25.1, 189.1 0.08 M122.18 77.06 C138.21 60.34, 152.19 42.24, 189.1 0.08 M127.17 77.42 C145.27 56.5, 168.32 31.64, 194.09 0.44 M127.17 77.42 C149.64 53.61, 169.02 29, 194.09 0.44 M132.81 77.03 C153.5 52.84, 176.29 25.1, 199.08 0.8 M132.81 77.03 C156.03 49.66, 178.43 25.13, 199.08 0.8 M137.8 77.39 C160.44 49.58, 184.61 20.25, 204.72 0.41 M137.8 77.39 C158.18 52.78, 181.08 28.45, 204.72 0.41 M143.44 76.99 C156.39 63.28, 171.88 45.46, 209.71 0.77 M143.44 76.99 C167.67 49.19, 192.73 19.96, 209.71 0.77 M148.43 77.35 C174.73 48.57, 203.42 15.31, 215.35 0.37 M148.43 77.35 C165 58.58, 182.65 37.59, 215.35 0.37 M154.07 76.96 C167.56 59.16, 184.38 42.06, 220.34 0.73 M154.07 76.96 C174.01 54.17, 193.64 31.37, 220.34 0.73 M159.06 77.32 C179.29 56.44, 196.38 31.2, 224.01 2.6 M159.06 77.32 C183.22 50.32, 205.03 23.99, 224.01 2.6 M164.7 76.92 C188.98 49.34, 214.85 19.78, 230.31 1.45 M164.7 76.92 C187.13 51.18, 210.4 25.2, 230.31 1.45 M169.69 77.28 C196.18 50.02, 218.05 23.75, 233.33 4.08 M169.69 77.28 C192.22 52.3, 214.94 25.69, 233.33 4.08 M175.33 76.89 C199.38 49.61, 223.6 22.4, 236.35 6.7 M175.33 76.89 C190.7 58.13, 206.59 40.42, 236.35 6.7 M180.32 77.25 C195 58.76, 211.18 39.78, 239.37 9.33 M180.32 77.25 C203.34 51.74, 226.3 24.83, 239.37 9.33 M185.96 76.86 C200.84 60.57, 214.47 43.24, 239.76 14.97 M185.96 76.86 C202.79 58.63, 219.4 39.87, 239.76 14.97 M190.95 77.22 C202.19 65.49, 215.15 53.52, 240.16 20.61 M190.95 77.22 C205.97 58.86, 220.52 41.57, 240.16 20.61 M196.59 76.82 C213.62 57.32, 230.14 38.69, 239.89 27.01 M196.59 76.82 C207.06 64.8, 218.65 51.95, 239.89 27.01 M201.58 77.18 C217.15 61.94, 231.97 43.88, 240.29 32.65 M201.58 77.18 C215.75 59.9, 231.84 43.9, 240.29 32.65 M207.22 76.79 C220.09 64.25, 228.63 50.95, 240.03 39.05 M207.22 76.79 C219.14 62.56, 230.64 48.74, 240.03 39.05 M212.21 77.15 C223.93 64.09, 234.16 51.88, 240.42 44.69 M212.21 77.15 C221.96 64.73, 232.66 52.91, 240.42 44.69 M217.85 76.75 C228.75 66.46, 235.74 57.26, 240.16 51.09 M217.85 76.75 C224.33 69.78, 230.14 63.39, 240.16 51.09 M223.5 76.36 C229.25 73.24, 230.27 66.58, 240.56 56.73 M223.5 76.36 C227.13 71.22, 232.06 66.19, 240.56 56.73 M229.8 75.21 C232.19 71.15, 237.91 65.96, 238.98 64.64 M229.8 75.21 C232.81 70.86, 236.7 67.39, 238.98 64.64" stroke="#a5d8ff" stroke-width="0.5" fill="none"></path><path d="M18.68 0 C65.46 2.1, 113.67 1.05, 221.33 0 M18.68 0 C91.41 -0.88, 166.44 -1.08, 221.33 0 M221.33 0 C232.34 0.09, 238.86 8.21, 240.01 18.68 M221.33 0 C234.74 -1.25, 241.27 6.12, 240.01 18.68 M240.01 18.68 C241.42 25.47, 237.8 32.98, 240.01 56.05 M240.01 18.68 C239.24 26.14, 239.86 34.98, 240.01 56.05 M240.01 56.05 C239.7 69.67, 235.46 75.82, 221.33 74.73 M240.01 56.05 C241.71 69.65, 233.71 76.06, 221.33 74.73 M221.33 74.73 C155.82 76.18, 92.93 75.17, 18.68 74.73 M221.33 74.73 C160.28 73.12, 98.34 73.79, 18.68 74.73 M18.68 74.73 C4.78 73.91, 1.25 70.27, 0 56.05 M18.68 74.73 C7.83 73.52, 0.27 69.7, 0 56.05 M0 56.05 C-1.21 46.3, -0.73 31.81, 0 18.68 M0 56.05 C-0.23 46.74, -0.52 39.19, 0 18.68 M0 18.68 C-0.51 6.79, 6.9 1.41, 18.68 0 M0 18.68 C-1.75 4.02, 7.1 -0.33, 18.68 0" stroke="#1971c2" stroke-width="1" fill="none"></path></g><g transform="translate(626.7525936156353 589.4247617290839) rotate(0 46.7882080078125 17.5)"><text x="0" y="0" font-family="Virgil, Segoe UI Emoji" font-size="28px" fill="#1e1e1e" text-anchor="start" style="white-space: pre;" direction="ltr" dominant-baseline="text-before-edge">Router</text></g><g stroke-linecap="round" transform="translate(552.0520763660616 565.5276107491668) rotate(0 121.29630050961578 88.37853099521067)"><path d="M32 0 C96.73 -0.35, 160.81 -1.69, 210.59 0 M32 0 C101 -1.18, 170.86 -0.24, 210.59 0 M210.59 0 C232.76 -1.08, 243.69 10.57, 242.59 32 M210.59 0 C229.85 -1.82, 240.65 12.62, 242.59 32 M242.59 32 C239.8 60.39, 240.25 86.01, 242.59 144.76 M242.59 32 C242.16 60.25, 243.15 87.88, 242.59 144.76 M242.59 144.76 C244.07 167.09, 231.86 177.91, 210.59 176.76 M242.59 144.76 C243.02 164.59, 232.32 175.58, 210.59 176.76 M210.59 176.76 C145.78 176.1, 79.27 178.58, 32 176.76 M210.59 176.76 C161.44 177.17, 114.36 178.46, 32 176.76 M32 176.76 C12.06 175.71, 0.23 167.13, 0 144.76 M32 176.76 C10.76 178.67, -2.26 165.05, 0 144.76 M0 144.76 C-1.14 101.99, 0.55 58.51, 0 32 M0 144.76 C0.3 118.8, 0.89 92.99, 0 32 M0 32 C-1.52 8.74, 11.43 -0.28, 32 0 M0 32 C1.17 9.81, 8.45 0.83, 32 0" stroke="#1e1e1e" stroke-width="4" fill="none"></path></g><g transform="translate(620.3527201663674 654.8809966579333) rotate(0 55.14411163330078 10)"><text x="0" y="0" font-family="Virgil, Segoe UI Emoji" font-size="16px" fill="#1e1e1e" text-anchor="start" style="white-space: pre;" direction="ltr" dominant-baseline="text-before-edge">scopeObserver</text></g><g transform="translate(609.0347040290872 680.7624965785058) rotate(0 71.7761459350586 10)"><text x="0" y="0" font-family="Virgil, Segoe UI Emoji" font-size="16px" fill="#1e1e1e" text-anchor="start" style="white-space: pre;" direction="ltr" dominant-baseline="text-before-edge">scopesByIdentifier</text></g><g transform="translate(604.2672266411273 707.7490830893948) rotate(0 75.73615264892578 10)"><text x="0" y="0" font-family="Virgil, Segoe UI Emoji" font-size="16px" fill="#1e1e1e" text-anchor="start" style="white-space: pre;" direction="ltr" dominant-baseline="text-before-edge">modulesByIdentifier</text></g><g stroke-linecap="round"><g transform="translate(401.59295004494834 458.06080111526853) rotate(0 74.01416737812951 96.40684834430817)"><path d="M0.49 0.81 C25.38 32.93, 124.22 160.64, 148.73 192.63 M-0.7 0.18 C24.17 31.97, 123.79 159.12, 148.37 190.9" stroke="#1e1e1e" stroke-width="4" fill="none"></path></g><g transform="translate(401.59295004494834 458.06080111526853) rotate(0 74.01416737812951 96.40684834430817)"><path d="M122.95 174.97 C130.71 180.76, 137.04 182.84, 148.37 190.9 M122.95 174.97 C132.94 181.74, 141.03 186.4, 148.37 190.9" stroke="#1e1e1e" stroke-width="4" fill="none"></path></g><g transform="translate(401.59295004494834 458.06080111526853) rotate(0 74.01416737812951 96.40684834430817)"><path d="M139.14 162.36 C142.79 171.41, 145.03 176.67, 148.37 190.9 M139.14 162.36 C143.04 173.83, 145.12 183.16, 148.37 190.9" stroke="#1e1e1e" stroke-width="4" fill="none"></path></g></g><mask></mask><g stroke-linecap="round"><g transform="translate(408.6806201530608 410.5944696642109) rotate(0 73.26012271886657 19.88657950130232)"><path d="M-0.06 0.16 C24.48 6.74, 122.52 32.82, 147.03 39.4 M-0.51 -0.06 C24.01 6.59, 122.23 33.3, 146.77 39.84" stroke="#1e1e1e" stroke-width="4" fill="none"></path></g><g transform="translate(408.6806201530608 410.5944696642109) rotate(0 73.26012271886657 19.88657950130232)"><path d="M116.88 42.41 C124.42 41.87, 131.34 41.13, 146.77 39.84 M116.88 42.41 C127.87 41.16, 139.49 40.5, 146.77 39.84" stroke="#1e1e1e" stroke-width="4" fill="none"></path></g><g transform="translate(408.6806201530608 410.5944696642109) rotate(0 73.26012271886657 19.88657950130232)"><path d="M122.22 22.59 C128.45 26.85, 134.08 30.92, 146.77 39.84 M122.22 22.59 C131.16 28.76, 140.78 35.52, 146.77 39.84" stroke="#1e1e1e" stroke-width="4" fill="none"></path></g></g><mask></mask><g stroke-linecap="round"><g transform="translate(406.87524945588393 391.0822467590997) rotate(0 79.66021195968187 -50.5456782179599)"><path d="M-0.35 -0.77 C25.76 -17.4, 131.06 -83.87, 157.57 -100.83 M1.67 1.44 C28.05 -15.44, 133.63 -85.34, 159.67 -102.53" stroke="#1e1e1e" stroke-width="4" fill="none"></path></g><g transform="translate(406.87524945588393 391.0822467590997) rotate(0 79.66021195968187 -50.5456782179599)"><path d="M141.81 -78.43 C147.42 -89.35, 156.72 -96.49, 159.67 -102.53 M141.81 -78.43 C145.22 -83.49, 150.27 -88.56, 159.67 -102.53" stroke="#1e1e1e" stroke-width="4" fill="none"></path></g><g transform="translate(406.87524945588393 391.0822467590997) rotate(0 79.66021195968187 -50.5456782179599)"><path d="M130.49 -95.55 C140.2 -100.02, 153.73 -100.75, 159.67 -102.53 M130.49 -95.55 C136.38 -96.79, 143.96 -98.05, 159.67 -102.53" stroke="#1e1e1e" stroke-width="4" fill="none"></path></g></g><mask></mask><g stroke-linecap="round"><g transform="translate(403.0518943508814 378.8246941935399) rotate(0 84.37478857886208 -130.06504775088456)"><path d="M-1.16 0.8 C27.21 -42.56, 141.45 -217.46, 169.91 -260.93 M0.42 0.17 C28.67 -43, 140.9 -216.73, 168.95 -259.87" stroke="#1e1e1e" stroke-width="4" fill="none"></path></g><g transform="translate(403.0518943508814 378.8246941935399) rotate(0 84.37478857886208 -130.06504775088456)"><path d="M162.23 -230.64 C165.57 -238.55, 164.52 -246.91, 168.95 -259.87 M162.23 -230.64 C164.87 -238.8, 165.52 -248.11, 168.95 -259.87" stroke="#1e1e1e" stroke-width="4" fill="none"></path></g><g transform="translate(403.0518943508814 378.8246941935399) rotate(0 84.37478857886208 -130.06504775088456)"><path d="M145.01 -241.79 C152.94 -246.52, 156.56 -251.86, 168.95 -259.87 M145.01 -241.79 C152.73 -246.67, 158.54 -252.64, 168.95 -259.87" stroke="#1e1e1e" stroke-width="4" fill="none"></path></g></g><mask></mask><g stroke-linecap="round"><g transform="translate(546.6489665369672 642.1297368433356) rotate(0 -73.37127384043197 -91.3136280163817)"><path d="M-1.09 0.32 C-25.65 -29.95, -122.18 -150.91, -146.25 -181.42 M0.55 -0.56 C-24.29 -31.15, -122.87 -152.78, -147.29 -182.94" stroke="#1e1e1e" stroke-width="4" fill="none"></path></g><g transform="translate(546.6489665369672 642.1297368433356) rotate(0 -73.37127384043197 -91.3136280163817)"><path d="M-121.57 -167.5 C-131.24 -174.14, -140.07 -178.99, -147.29 -182.94 M-121.57 -167.5 C-127.91 -171.69, -136.61 -175.58, -147.29 -182.94" stroke="#1e1e1e" stroke-width="4" fill="none"></path></g><g transform="translate(546.6489665369672 642.1297368433356) rotate(0 -73.37127384043197 -91.3136280163817)"><path d="M-137.52 -154.58 C-140.89 -166.19, -143.4 -176.16, -147.29 -182.94 M-137.52 -154.58 C-139.28 -162.37, -143.45 -169.94, -147.29 -182.94" stroke="#1e1e1e" stroke-width="4" fill="none"></path></g></g><mask></mask><g stroke-linecap="round"><g transform="translate(552.1880852273089 450.08772569202984) rotate(0 -73.16335712776981 -21.147070170889037)"><path d="M-0.31 -0.05 C-24.74 -7.07, -122.07 -35.27, -146.4 -42.24 M0.23 -0.41 C-24.24 -7.37, -122.12 -35.08, -146.56 -41.92" stroke="#1e1e1e" stroke-width="4" fill="none"></path></g><g transform="translate(552.1880852273089 450.08772569202984) rotate(0 -73.16335712776981 -21.147070170889037)"><path d="M-116.64 -44.15 C-126.97 -42.93, -137.67 -42.05, -146.56 -41.92 M-116.64 -44.15 C-126.26 -43.36, -135.86 -43.07, -146.56 -41.92" stroke="#1e1e1e" stroke-width="4" fill="none"></path></g><g transform="translate(552.1880852273089 450.08772569202984) rotate(0 -73.16335712776981 -21.147070170889037)"><path d="M-122.2 -24.4 C-130.6 -29.91, -139.4 -35.79, -146.56 -41.92 M-122.2 -24.4 C-130.1 -29.85, -137.93 -35.81, -146.56 -41.92" stroke="#1e1e1e" stroke-width="4" fill="none"></path></g></g><mask></mask><g transform="translate(48.54388656653555 393.6751133878183) rotate(0 160.1100616455078 22.5)"><text x="0" y="0" font-family="Virgil, Segoe UI Emoji" font-size="36px" fill="#1e1e1e" text-anchor="start" style="white-space: pre;" direction="ltr" dominant-baseline="text-before-edge">Application.start()</text></g></svg>